<svg xmlns="http://www.w3.org/2000/svg" viewBox="0 0 64 64">
  <defs>
    <linearGradient id="t" x1="0" y1="0" x2="0" y2="1"><stop offset="0" stop-color="#3ea2ff"/><stop offset="1" stop-color="#0062d6"/></linearGradient>
  </defs>
  <rect width="64" height="64" rx="15" fill="url(#t)"/>
  <rect x=".5" y=".5" width="63" height="63" rx="14.5" fill="none" stroke="#fff" stroke-opacity=".18"/>
  <g transform="translate(9 7.5) scale(.72)">
    <path d="M21 30V21a11 11 0 0 1 22 0v9" fill="none" stroke="#fff" stroke-width="6.5" stroke-linecap="round"/>
    <path d="M21 28h22a9 9 0 0 1 9 9v12a9 9 0 0 1-9 9H21a9 9 0 0 1-9-9V37a9 9 0 0 1 9-9ZM32 35a4 4 0 1 0 0 8a4 4 0 1 0 0-8ZM29.5 47.5v2a2.5 2.5 0 0 0 5 0v-2a2.5 2.5 0 0 0-5 0Z" fill="#fff" fill-rule="evenodd"/>
  </g>
</svg>
