<svg xmlns="http://www.w3.org/2000/svg" viewBox="0 0 420 250" role="img"><title>A brain wondering where to start</title><defs><radialGradient id="bg" cx="40%" cy="55%" r="75%"><stop offset="0" stop-color="#232852"/><stop offset="1" stop-color="#0e1126"/></radialGradient><filter id="glow" x="-50%" y="-50%" width="200%" height="200%"><feGaussianBlur stdDeviation="5"/></filter></defs><rect width="420" height="250" fill="url(#bg)"/><g transform="translate(150 150) scale(1.05)"><path d="M 8,30 C 12,44 12,52 18,62 L 30,62 C 26,50 24,42 24,30 Z" fill="#3a418f"/><circle cx="30" cy="32" r="14" fill="#3a418f"/><g filter="url(#glow)" fill="#5b63c9" opacity="0.9"><circle cx="-38" cy="-10" r="26"/><circle cx="-15" cy="-28" r="28"/><circle cx="15" cy="-30" r="28"/><circle cx="40" cy="-14" r="26"/><circle cx="48" cy="12" r="20"/><circle cx="-45" cy="15" r="20"/><circle cx="-20" cy="14" r="26"/><circle cx="18" cy="12" r="28"/><circle cx="0" cy="-5" r="32"/></g><g fill="#5b63c9"><circle cx="-38" cy="-10" r="26"/><circle cx="-15" cy="-28" r="28"/><circle cx="15" cy="-30" r="28"/><circle cx="40" cy="-14" r="26"/><circle cx="48" cy="12" r="20"/><circle cx="-45" cy="15" r="20"/><circle cx="-20" cy="14" r="26"/><circle cx="18" cy="12" r="28"/><circle cx="0" cy="-5" r="32"/></g><g fill="none" stroke="#aab2ff" stroke-width="3.2" stroke-linecap="round"><path d="M -2,-54 C 6,-38 -8,-22 2,-6 S -6,20 4,36"/><path d="M -56,-4 q 10,-9 20,0 t 18,0"/><path d="M -34,-38 q 9,7 18,0"/><path d="M 22,-50 q -5,11 6,18"/><path d="M 28,-6 q 11,7 24,-2"/><path d="M -40,26 q 11,-7 21,2"/><path d="M 18,24 q 7,-9 17,-4"/><path d="M -24,-12 q 6,8 14,4"/><path d="M 36,-30 q 8,2 12,10"/></g></g><g fill="#e9eaf5"><circle cx="204" cy="104" r="4" opacity="0.5"/><circle cx="218" cy="88" r="6" opacity="0.7"/><circle cx="236" cy="72" r="8" opacity="0.85"/><path d="M 262,22 h 104 a 28,28 0 0 1 28,28 v 18 a 28,28 0 0 1 -28,28 h -104 a 28,28 0 0 1 -28,-28 v -18 a 28,28 0 0 1 28,-28 Z"/></g><text x="314" y="75" text-anchor="middle" font-family="Segoe UI, sans-serif" font-size="40" font-weight="700" fill="#5b5bf0">?</text><g fill="#8b8cff"><circle cx="346" cy="60" r="3.5"/><circle cx="358" cy="60" r="3.5" opacity="0.7"/><circle cx="370" cy="60" r="3.5" opacity="0.4"/></g></svg>
